<svg width="138" height="41" viewBox="0 0 138 41" fill="none" xmlns="http://www.w3.org/2000/svg"><path d="M67.2283 22.4892C67.2283 28.6186 62.7721 33.3497 57.3665 33.3497C54.6001 33.3497 52.5775 32.4035 51.2172 30.8394V41.0008H45.0254V12.2075H51.2172V14.1422C52.5775 12.5782 54.6001 11.632 57.3665 11.632C62.7721 11.632 67.2283 16.3599 67.2283 22.4892ZM61.0366 22.4892C61.0366 19.4034 58.9715 17.4719 56.1269 17.4719C53.2789 17.4719 51.2172 19.4066 51.2172 22.4892C51.2172 25.575 53.2822 27.5065 56.1269 27.5065C58.9748 27.5065 61.0366 25.575 61.0366 22.4892Z" fill="white"></path><path d="M83.1156 11.7946V18.7856C80.558 18.3759 76.9271 19.4034 76.9271 23.4745V32.7709H70.7354V12.2075H76.9271V15.8689C77.7492 13.1115 80.5156 11.7946 83.1156 11.7946Z" fill="white"></path><path d="M84.3516 22.4892C84.3516 16.3599 89.2188 11.632 95.2866 11.632C101.354 11.632 106.222 16.3631 106.222 22.4892C106.222 28.6186 101.351 33.3497 95.2866 33.3497C89.2221 33.3497 84.3516 28.6186 84.3516 22.4892ZM100.033 22.4892C100.033 19.5692 97.9682 17.6345 95.2866 17.6345C92.6051 17.6345 90.5401 19.5692 90.5401 22.4892C90.5401 25.4092 92.6051 27.3439 95.2866 27.3439C97.9715 27.3439 100.033 25.4092 100.033 22.4892Z" fill="white"></path><path d="M128.921 12.2075L121.287 32.7742H114.273L106.64 12.2075H113.49L117.784 25.2466L122.077 12.2075H128.921Z" fill="white"></path><path d="M130.571 6.69598C130.571 4.67996 132.264 2.99561 134.284 2.99561C136.303 2.99561 137.996 4.68321 137.996 6.69598C137.996 8.712 136.303 10.3996 134.284 10.3996C132.264 10.3996 130.571 8.70875 130.571 6.69598ZM131.191 12.2075H137.383V32.7742H131.191V12.2075Z" fill="white"></path><path d="M36.1034 7.06609C28.1924 -1.98649 14.3963 -2.34092 6.02213 6.0028C1.97367 10.0413 -0.0293603 15.3415 0.00326226 20.632L0 20.6287V41.0003H20.438L20.4348 40.997C26.1372 41.0328 31.8527 38.7241 35.9925 34.0612C42.7715 26.4231 42.8237 14.7562 36.1034 7.06609ZM26.0817 25.9972C23.0348 29.0342 18.0957 29.0342 15.0488 25.9972C12.0018 22.9601 12.0018 18.0371 15.0488 15.0001C18.0957 11.9631 23.0348 11.9631 26.0817 15.0001C29.1287 18.0371 29.1287 22.9601 26.0817 25.9972Z" fill="url(#paint0_linear)"></path><defs><linearGradient id="paint0_linear" x1="41.1105" y1="20.4998" x2="0" y2="20.4998" gradientUnits="userSpaceOnUse"><stop stop-color="#2369F1"></stop><stop offset="0.999" stop-color="#06C1EF"></stop></linearGradient></defs></svg>